+ filenameToUse=/home/horvathandras/vatic/vatic/public/videouploads/DJI_0350_30m_nyulragas_jelolve.avi
+ filenameNoDot=DJI_0350_30m_nyulragas_jelolve_Vaskut_20180512_napos_kalaszos_T2
+ FullUploadPath=/home/horvathandras/vatic/vatic/public/videouploads/DJI_0350_30m_nyulragas_jelolve.avi
+ VideoDataDir=/home/horvathandras/vatic/vatic/videos
+ AvailableObjectTypes='PozitívROI NegatívROI Túrás ~Friss ~Régebbi Rágás ~Friss ~Régebbi Törés ~Friss ~Régebbi Taposás ~Friss ~Régebbi EgészségesNövény Egyéb1 Egyéb2 Egyéb3 Egyéb4 Egyéb5'
++ dirname /home/horvathandras/vatic/vatic/vatic_publisher.sh
+ cd /home/horvathandras/vatic/vatic
+ touch /home/horvathandras/vatic/vatic/public/videouploads/DJI_0350_30m_nyulragas_jelolve.avi
+ chmod 744 /home/horvathandras/vatic/vatic/public/videouploads/DJI_0350_30m_nyulragas_jelolve.avi
+ mkdir /home/horvathandras/vatic/vatic/videos/DJI_0350_30m_nyulragas_jelolve_Vaskut_20180512_napos_kalaszos_T2
+ turkic extract /home/horvathandras/vatic/vatic/public/videouploads/DJI_0350_30m_nyulragas_jelolve.avi /home/horvathandras/vatic/vatic/videos/DJI_0350_30m_nyulragas_jelolve_Vaskut_20180512_napos_kalaszos_T2 --no-resize
ffmpeg version 2.8.14-0ubuntu0.16.04.1 Copyright (c) 2000-2018 the FFmpeg developers
  built with gcc 5.4.0 (Ubuntu 5.4.0-6ubuntu1~16.04.9) 20160609
  configuration: --prefix=/usr --extra-version=0ubuntu0.16.04.1 --build-suffix=-ffmpeg --toolchain=hardened --libdir=/usr/lib/x86_64-linux-gnu --incdir=/usr/include/x86_64-linux-gnu --cc=cc --cxx=g++ --enable-gpl --enable-shared --disable-stripping --disable-decoder=libopenjpeg --disable-decoder=libschroedinger --enable-avresample --enable-avisynth --enable-gnutls --enable-ladspa --enable-libass --enable-libbluray --enable-libbs2b --enable-libcaca --enable-libcdio --enable-libflite --enable-libfontconfig --enable-libfreetype --enable-libfribidi --enable-libgme --enable-libgsm --enable-libmodplug --enable-libmp3lame --enable-libopenjpeg --enable-libopus --enable-libpulse --enable-librtmp --enable-libschroedinger --enable-libshine --enable-libsnappy --enable-libsoxr --enable-libspeex --enable-libssh --enable-libtheora --enable-libtwolame --enable-libvorbis --enable-libvpx --enable-libwavpack --enable-libwebp --enable-libx265 --enable-libxvid --enable-libzvbi --enable-openal --enable-opengl --enable-x11grab --enable-libdc1394 --enable-libiec61883 --enable-libzmq --enable-frei0r --enable-libx264 --enable-libopencv
  libavutil      54. 31.100 / 54. 31.100
  libavcodec     56. 60.100 / 56. 60.100
  libavformat    56. 40.101 / 56. 40.101
  libavdevice    56.  4.100 / 56.  4.100
  libavfilter     5. 40.101 /  5. 40.101
  libavresample   2.  1.  0 /  2.  1.  0
  libswscale      3.  1.101 /  3.  1.101
  libswresample   1.  2.101 /  1.  2.101
  libpostproc    53.  3.100 / 53.  3.100
Input #0, mov,mp4,m4a,3gp,3g2,mj2, from '/home/horvathandras/vatic/vatic/public/videouploads/DJI_0350_30m_nyulragas_jelolve.avi':
  Metadata:
    major_brand     : qt  
    minor_version   : 537986816
    compatible_brands: qt  
    creation_time   : 2018-05-12 15:51:40
    location        : +46.092469+18.979844+29.900
    location-{    : +46.092469+18.979844+29.900
    comment         : DE=None, Mode=P, DSW=0001
  Duration: 00:00:26.53, start: 0.000000, bitrate: 100517 kb/s
    Stream #0:0(eng): Video: h264 (High) (avc1 / 0x31637661), yuv420p(tv, bt709), 4096x2160 [SAR 1:1 DAR 256:135], 100436 kb/s, 59.94 fps, 59.94 tbr, 60k tbn, 119.88 tbc (default)
    Metadata:
      creation_time   : 2018-05-12 15:51:40
      handler_name    : DJI.AVC
      encoder         : AVC encoder
    Stream #0:1(eng): Data: none (priv / 0x76697270), 72 kb/s
    Metadata:
      creation_time   : 2018-05-12 15:51:40
      handler_name    : DJI.Meta
Please use -b:a or -b:v, -b is ambiguous
[swscaler @ 0x163b960] deprecated pixel format used, make sure you did set range correctly
Output #0, image2, to '/tmp/pyvision-ffmpeg-647449337/%d.jpg':
  Metadata:
    major_brand     : qt  
    minor_version   : 537986816
    compatible_brands: qt  
    comment         : DE=None, Mode=P, DSW=0001
    location        : +46.092469+18.979844+29.900
    location-{    : +46.092469+18.979844+29.900
    encoder         : Lavf56.40.101
    Stream #0:0(eng): Video: mjpeg, yuvj420p(pc), 4096x2160 [SAR 1:1 DAR 256:135], q=2-31, 10000 kb/s, 59.94 fps, 59.94 tbn, 59.94 tbc (default)
    Metadata:
      creation_time   : 2018-05-12 15:51:40
      handler_name    : DJI.AVC
      encoder         : Lavc56.60.100 mjpeg
Stream mapping:
  Stream #0:0 -> #0:0 (h264 (native) -> mjpeg (native))
Press [q] to stop, [?] for help
frame=    3 fps=0.0 q=14.8 size=N/A time=00:00:00.05 bitrate=N/A    frame=    9 fps=8.1 q=24.8 size=N/A time=00:00:00.15 bitrate=N/A    frame=   15 fps=9.2 q=24.8 size=N/A time=00:00:00.25 bitrate=N/A    frame=   21 fps=9.7 q=24.8 size=N/A time=00:00:00.35 bitrate=N/A    frame=   27 fps= 10 q=24.8 size=N/A time=00:00:00.45 bitrate=N/A    frame=   33 fps= 10 q=24.8 size=N/A time=00:00:00.55 bitrate=N/A    frame=   39 fps= 10 q=24.8 size=N/A time=00:00:00.65 bitrate=N/A    frame=   45 fps= 11 q=24.8 size=N/A time=00:00:00.75 bitrate=N/A    frame=   51 fps= 11 q=24.8 size=N/A time=00:00:00.85 bitrate=N/A    frame=   57 fps= 11 q=24.8 size=N/A time=00:00:00.95 bitrate=N/A    frame=   63 fps= 11 q=24.8 size=N/A time=00:00:01.05 bitrate=N/A    frame=   69 fps= 11 q=24.8 size=N/A time=00:00:01.15 bitrate=N/A    frame=   75 fps= 11 q=24.8 size=N/A time=00:00:01.25 bitrate=N/A    frame=   81 fps= 11 q=24.8 size=N/A time=00:00:01.35 bitrate=N/A    frame=   87 fps= 11 q=24.8 size=N/A time=00:00:01.45 bitrate=N/A    frame=   93 fps= 11 q=24.8 size=N/A time=00:00:01.55 bitrate=N/A    frame=   99 fps= 11 q=24.8 size=N/A time=00:00:01.65 bitrate=N/A    frame=  105 fps= 11 q=24.8 size=N/A time=00:00:01.75 bitrate=N/A    frame=  111 fps= 11 q=24.8 size=N/A time=00:00:01.85 bitrate=N/A    frame=  117 fps= 11 q=24.8 size=N/A time=00:00:01.95 bitrate=N/A    frame=  123 fps= 11 q=24.8 size=N/A time=00:00:02.05 bitrate=N/A    frame=  129 fps= 11 q=24.8 size=N/A time=00:00:02.15 bitrate=N/A    frame=  135 fps= 11 q=24.8 size=N/A time=00:00:02.25 bitrate=N/A    frame=  141 fps= 11 q=24.8 size=N/A time=00:00:02.35 bitrate=N/A    frame=  147 fps= 11 q=24.8 size=N/A time=00:00:02.45 bitrate=N/A    frame=  153 fps= 11 q=24.8 size=N/A time=00:00:02.55 bitrate=N/A    frame=  159 fps= 11 q=24.8 size=N/A time=00:00:02.65 bitrate=N/A    frame=  165 fps= 11 q=24.8 size=N/A time=00:00:02.75 bitrate=N/A    frame=  171 fps= 11 q=24.8 size=N/A time=00:00:02.85 bitrate=N/A    frame=  177 fps= 11 q=24.8 size=N/A time=00:00:02.95 bitrate=N/A    frame=  183 fps= 11 q=24.8 size=N/A time=00:00:03.05 bitrate=N/A    frame=  189 fps= 11 q=24.8 size=N/A time=00:00:03.15 bitrate=N/A    frame=  195 fps= 11 q=24.8 size=N/A time=00:00:03.25 bitrate=N/A    frame=  201 fps= 11 q=24.8 size=N/A time=00:00:03.35 bitrate=N/A    frame=  207 fps= 11 q=24.8 size=N/A time=00:00:03.45 bitrate=N/A    frame=  213 fps= 11 q=24.8 size=N/A time=00:00:03.55 bitrate=N/A    frame=  219 fps= 11 q=24.8 size=N/A time=00:00:03.65 bitrate=N/A    frame=  225 fps= 11 q=24.8 size=N/A time=00:00:03.75 bitrate=N/A    frame=  231 fps= 11 q=24.8 size=N/A time=00:00:03.85 bitrate=N/A    frame=  237 fps= 11 q=24.8 size=N/A time=00:00:03.95 bitrate=N/A    frame=  243 fps= 11 q=24.8 size=N/A time=00:00:04.05 bitrate=N/A    frame=  249 fps= 11 q=24.8 size=N/A time=00:00:04.15 bitrate=N/A    frame=  255 fps= 11 q=24.8 size=N/A time=00:00:04.25 bitrate=N/A    frame=  261 fps= 11 q=24.8 size=N/A time=00:00:04.35 bitrate=N/A    frame=  267 fps= 11 q=24.8 size=N/A time=00:00:04.45 bitrate=N/A    frame=  273 fps= 11 q=24.8 size=N/A time=00:00:04.55 bitrate=N/A    frame=  279 fps= 11 q=24.8 size=N/A time=00:00:04.65 bitrate=N/A    frame=  285 fps= 11 q=24.8 size=N/A time=00:00:04.75 bitrate=N/A    frame=  291 fps= 11 q=24.8 size=N/A time=00:00:04.85 bitrate=N/A    frame=  297 fps= 11 q=24.8 size=N/A time=00:00:04.95 bitrate=N/A    frame=  303 fps= 11 q=24.8 size=N/A time=00:00:05.05 bitrate=N/A    frame=  309 fps= 11 q=24.8 size=N/A time=00:00:05.15 bitrate=N/A    frame=  315 fps= 11 q=24.8 size=N/A time=00:00:05.25 bitrate=N/A    frame=  321 fps= 11 q=24.8 size=N/A time=00:00:05.35 bitrate=N/A    frame=  327 fps= 11 q=24.8 size=N/A time=00:00:05.45 bitrate=N/A    frame=  333 fps= 11 q=24.8 size=N/A time=00:00:05.55 bitrate=N/A    frame=  339 fps= 11 q=24.8 size=N/A time=00:00:05.65 bitrate=N/A    frame=  345 fps= 11 q=24.8 size=N/A time=00:00:05.75 bitrate=N/A    frame=  351 fps= 11 q=24.8 size=N/A time=00:00:05.85 bitrate=N/A    frame=  357 fps= 11 q=24.8 size=N/A time=00:00:05.95 bitrate=N/A    frame=  363 fps= 11 q=24.8 size=N/A time=00:00:06.05 bitrate=N/A    frame=  369 fps= 11 q=24.8 size=N/A time=00:00:06.15 bitrate=N/A    frame=  375 fps= 11 q=24.8 size=N/A time=00:00:06.25 bitrate=N/A    frame=  381 fps= 11 q=24.8 size=N/A time=00:00:06.35 bitrate=N/A    frame=  387 fps= 11 q=24.8 size=N/A time=00:00:06.45 bitrate=N/A    frame=  393 fps= 11 q=24.8 size=N/A time=00:00:06.55 bitrate=N/A    frame=  399 fps= 11 q=24.8 size=N/A time=00:00:06.65 bitrate=N/A    frame=  405 fps= 11 q=24.8 size=N/A time=00:00:06.75 bitrate=N/A    frame=  411 fps= 11 q=24.8 size=N/A time=00:00:06.85 bitrate=N/A    frame=  417 fps= 11 q=24.8 size=N/A time=00:00:06.95 bitrate=N/A    frame=  423 fps= 12 q=24.8 size=N/A time=00:00:07.05 bitrate=N/A    frame=  429 fps= 12 q=24.8 size=N/A time=00:00:07.15 bitrate=N/A    frame=  435 fps= 12 q=24.8 size=N/A time=00:00:07.25 bitrate=N/A    frame=  441 fps= 12 q=24.8 size=N/A time=00:00:07.35 bitrate=N/A    frame=  447 fps= 12 q=24.8 size=N/A time=00:00:07.45 bitrate=N/A    frame=  453 fps= 12 q=24.8 size=N/A time=00:00:07.55 bitrate=N/A    frame=  459 fps= 12 q=24.8 size=N/A time=00:00:07.65 bitrate=N/A    frame=  465 fps= 12 q=24.8 size=N/A time=00:00:07.75 bitrate=N/A    frame=  471 fps= 12 q=24.8 size=N/A time=00:00:07.85 bitrate=N/A    frame=  477 fps= 12 q=24.8 size=N/A time=00:00:07.95 bitrate=N/A    frame=  483 fps= 12 q=24.8 size=N/A time=00:00:08.05 bitrate=N/A    frame=  489 fps= 12 q=24.8 size=N/A time=00:00:08.15 bitrate=N/A    frame=  495 fps= 12 q=24.8 size=N/A time=00:00:08.25 bitrate=N/A    frame=  501 fps= 12 q=24.8 size=N/A time=00:00:08.35 bitrate=N/A    frame=  507 fps= 12 q=24.8 size=N/A time=00:00:08.45 bitrate=N/A    frame=  513 fps= 12 q=24.8 size=N/A time=00:00:08.55 bitrate=N/A    frame=  519 fps= 12 q=24.8 size=N/A time=00:00:08.65 bitrate=N/A    frame=  525 fps= 12 q=24.8 size=N/A time=00:00:08.75 bitrate=N/A    frame=  531 fps= 12 q=24.8 size=N/A time=00:00:08.85 bitrate=N/A    frame=  537 fps= 12 q=24.8 size=N/A time=00:00:08.95 bitrate=N/A    frame=  543 fps= 12 q=24.8 size=N/A time=00:00:09.05 bitrate=N/A    frame=  549 fps= 12 q=24.8 size=N/A time=00:00:09.15 bitrate=N/A    frame=  555 fps= 12 q=24.8 size=N/A time=00:00:09.25 bitrate=N/A    frame=  561 fps= 12 q=24.8 size=N/A time=00:00:09.35 bitrate=N/A    frame=  567 fps= 12 q=24.8 size=N/A time=00:00:09.45 bitrate=N/A    frame=  573 fps= 12 q=24.8 size=N/A time=00:00:09.55 bitrate=N/A    frame=  579 fps= 12 q=24.8 size=N/A time=00:00:09.65 bitrate=N/A    frame=  585 fps= 12 q=24.8 size=N/A time=00:00:09.75 bitrate=N/A    frame=  591 fps= 12 q=24.8 size=N/A time=00:00:09.85 bitrate=N/A    frame=  597 fps= 12 q=24.8 size=N/A time=00:00:09.95 bitrate=N/A    frame=  603 fps= 12 q=24.8 size=N/A time=00:00:10.06 bitrate=N/A    frame=  609 fps= 12 q=24.8 size=N/A time=00:00:10.16 bitrate=N/A    frame=  615 fps= 12 q=24.8 size=N/A time=00:00:10.26 bitrate=N/A    frame=  621 fps= 12 q=24.8 size=N/A time=00:00:10.36 bitrate=N/A    frame=  627 fps= 12 q=24.8 size=N/A time=00:00:10.46 bitrate=N/A    frame=  633 fps= 12 q=24.8 size=N/A time=00:00:10.56 bitrate=N/A    frame=  639 fps= 12 q=24.8 size=N/A time=00:00:10.66 bitrate=N/A    frame=  645 fps= 12 q=24.8 size=N/A time=00:00:10.76 bitrate=N/A    frame=  651 fps= 12 q=24.8 size=N/A time=00:00:10.86 bitrate=N/A    frame=  657 fps= 12 q=24.8 size=N/A time=00:00:10.96 bitrate=N/A    frame=  663 fps= 12 q=24.8 size=N/A time=00:00:11.06 bitrate=N/A    frame=  669 fps= 12 q=24.8 size=N/A time=00:00:11.16 bitrate=N/A    frame=  675 fps= 12 q=24.8 size=N/A time=00:00:11.26 bitrate=N/A    frame=  681 fps= 12 q=24.8 size=N/A time=00:00:11.36 bitrate=N/A    frame=  687 fps= 12 q=24.8 size=N/A time=00:00:11.46 bitrate=N/A    frame=  693 fps= 12 q=24.8 size=N/A time=00:00:11.56 bitrate=N/A    frame=  699 fps= 12 q=24.8 size=N/A time=00:00:11.66 bitrate=N/A    frame=  705 fps= 12 q=24.8 size=N/A time=00:00:11.76 bitrate=N/A    frame=  711 fps= 12 q=24.8 size=N/A time=00:00:11.86 bitrate=N/A    frame=  717 fps= 12 q=24.8 size=N/A time=00:00:11.96 bitrate=N/A    frame=  723 fps= 12 q=24.8 size=N/A time=00:00:12.06 bitrate=N/A    frame=  729 fps= 12 q=24.8 size=N/A time=00:00:12.16 bitrate=N/A    frame=  735 fps= 12 q=24.8 size=N/A time=00:00:12.26 bitrate=N/A    frame=  741 fps= 12 q=24.8 size=N/A time=00:00:12.36 bitrate=N/A    frame=  747 fps= 12 q=24.8 size=N/A time=00:00:12.46 bitrate=N/A    frame=  753 fps= 12 q=24.8 size=N/A time=00:00:12.56 bitrate=N/A    frame=  759 fps= 12 q=24.8 size=N/A time=00:00:12.66 bitrate=N/A    frame=  765 fps= 12 q=24.8 size=N/A time=00:00:12.76 bitrate=N/A    frame=  771 fps= 12 q=24.8 size=N/A time=00:00:12.86 bitrate=N/A    frame=  777 fps= 12 q=24.8 size=N/A time=00:00:12.96 bitrate=N/A    frame=  783 fps= 12 q=24.8 size=N/A time=00:00:13.06 bitrate=N/A    frame=  789 fps= 12 q=24.8 size=N/A time=00:00:13.16 bitrate=N/A    frame=  795 fps= 12 q=24.8 size=N/A time=00:00:13.26 bitrate=N/A    frame=  801 fps= 12 q=24.8 size=N/A time=00:00:13.36 bitrate=N/A    frame=  807 fps= 12 q=24.8 size=N/A time=00:00:13.46 bitrate=N/A    frame=  813 fps= 12 q=24.8 size=N/A time=00:00:13.56 bitrate=N/A    frame=  819 fps= 12 q=24.8 size=N/A time=00:00:13.66 bitrate=N/A    frame=  825 fps= 12 q=24.8 size=N/A time=00:00:13.76 bitrate=N/A    frame=  831 fps= 12 q=24.8 size=N/A time=00:00:13.86 bitrate=N/A    frame=  837 fps= 12 q=24.8 size=N/A time=00:00:13.96 bitrate=N/A    frame=  843 fps= 12 q=24.8 size=N/A time=00:00:14.06 bitrate=N/A    frame=  849 fps= 12 q=24.8 size=N/A time=00:00:14.16 bitrate=N/A    frame=  855 fps= 12 q=24.8 size=N/A time=00:00:14.26 bitrate=N/A    frame=  861 fps= 12 q=24.8 size=N/A time=00:00:14.36 bitrate=N/A    frame=  867 fps= 12 q=24.8 size=N/A time=00:00:14.46 bitrate=N/A    frame=  873 fps= 12 q=24.8 size=N/A time=00:00:14.56 bitrate=N/A    frame=  879 fps= 12 q=24.8 size=N/A time=00:00:14.66 bitrate=N/A    frame=  885 fps= 12 q=24.8 size=N/A time=00:00:14.76 bitrate=N/A    frame=  891 fps= 12 q=24.8 size=N/A time=00:00:14.86 bitrate=N/A    frame=  897 fps= 12 q=24.8 size=N/A time=00:00:14.96 bitrate=N/A    frame=  903 fps= 12 q=24.8 size=N/A time=00:00:15.06 bitrate=N/A    frame=  909 fps= 12 q=24.8 size=N/A time=00:00:15.16 bitrate=N/A    frame=  915 fps= 12 q=24.8 size=N/A time=00:00:15.26 bitrate=N/A    frame=  921 fps= 12 q=24.8 size=N/A time=00:00:15.36 bitrate=N/A    frame=  927 fps= 12 q=24.8 size=N/A time=00:00:15.46 bitrate=N/A    frame=  933 fps= 12 q=24.8 size=N/A time=00:00:15.56 bitrate=N/A    frame=  939 fps= 12 q=24.8 size=N/A time=00:00:15.66 bitrate=N/A    frame=  945 fps= 12 q=24.8 size=N/A time=00:00:15.76 bitrate=N/A    frame=  951 fps= 12 q=24.8 size=N/A time=00:00:15.86 bitrate=N/A    frame=  957 fps= 12 q=24.8 size=N/A time=00:00:15.96 bitrate=N/A    frame=  963 fps= 12 q=24.8 size=N/A time=00:00:16.06 bitrate=N/A    frame=  969 fps= 12 q=24.8 size=N/A time=00:00:16.16 bitrate=N/A    frame=  975 fps= 12 q=24.8 size=N/A time=00:00:16.26 bitrate=N/A    frame=  981 fps= 12 q=24.8 size=N/A time=00:00:16.36 bitrate=N/A    frame=  987 fps= 12 q=24.8 size=N/A time=00:00:16.46 bitrate=N/A    frame=  993 fps= 12 q=24.8 size=N/A time=00:00:16.56 bitrate=N/A    frame=  999 fps= 12 q=24.8 size=N/A time=00:00:16.66 bitrate=N/A    frame= 1005 fps= 12 q=24.8 size=N/A time=00:00:16.76 bitrate=N/A    frame= 1011 fps= 12 q=24.8 size=N/A time=00:00:16.86 bitrate=N/A    frame= 1017 fps= 12 q=24.8 size=N/A time=00:00:16.96 bitrate=N/A    frame= 1023 fps= 12 q=24.8 size=N/A time=00:00:17.06 bitrate=N/A    frame= 1029 fps= 12 q=24.8 size=N/A time=00:00:17.16 bitrate=N/A    frame= 1035 fps= 12 q=24.8 size=N/A time=00:00:17.26 bitrate=N/A    frame= 1041 fps= 12 q=24.8 size=N/A time=00:00:17.36 bitrate=N/A    frame= 1047 fps= 12 q=24.8 size=N/A time=00:00:17.46 bitrate=N/A    frame= 1053 fps= 12 q=24.8 size=N/A time=00:00:17.56 bitrate=N/A    frame= 1059 fps= 12 q=24.8 size=N/A time=00:00:17.66 bitrate=N/A    frame= 1065 fps= 12 q=24.8 size=N/A time=00:00:17.76 bitrate=N/A    frame= 1071 fps= 12 q=24.8 size=N/A time=00:00:17.86 bitrate=N/A    frame= 1077 fps= 12 q=24.8 size=N/A time=00:00:17.96 bitrate=N/A    frame= 1083 fps= 12 q=24.8 size=N/A time=00:00:18.06 bitrate=N/A    frame= 1089 fps= 12 q=24.8 size=N/A time=00:00:18.16 bitrate=N/A    frame= 1095 fps= 12 q=24.8 size=N/A time=00:00:18.26 bitrate=N/A    frame= 1101 fps= 12 q=24.8 size=N/A time=00:00:18.36 bitrate=N/A    frame= 1107 fps= 12 q=24.8 size=N/A time=00:00:18.46 bitrate=N/A    frame= 1113 fps= 12 q=24.8 size=N/A time=00:00:18.56 bitrate=N/A    frame= 1119 fps= 12 q=24.8 size=N/A time=00:00:18.66 bitrate=N/A    frame= 1125 fps= 12 q=24.8 size=N/A time=00:00:18.76 bitrate=N/A    frame= 1131 fps= 12 q=24.8 size=N/A time=00:00:18.86 bitrate=N/A    frame= 1137 fps= 12 q=24.8 size=N/A time=00:00:18.96 bitrate=N/A    frame= 1143 fps= 12 q=24.8 size=N/A time=00:00:19.06 bitrate=N/A    frame= 1149 fps= 12 q=24.8 size=N/A time=00:00:19.16 bitrate=N/A    frame= 1155 fps= 12 q=24.8 size=N/A time=00:00:19.26 bitrate=N/A    frame= 1161 fps= 12 q=24.8 size=N/A time=00:00:19.36 bitrate=N/A    frame= 1167 fps= 12 q=24.8 size=N/A time=00:00:19.46 bitrate=N/A    frame= 1173 fps= 12 q=24.8 size=N/A time=00:00:19.56 bitrate=N/A    frame= 1179 fps= 12 q=24.8 size=N/A time=00:00:19.66 bitrate=N/A    frame= 1185 fps= 12 q=24.8 size=N/A time=00:00:19.76 bitrate=N/A    frame= 1191 fps= 12 q=24.8 size=N/A time=00:00:19.86 bitrate=N/A    frame= 1197 fps= 12 q=24.8 size=N/A time=00:00:19.96 bitrate=N/A    frame= 1203 fps= 12 q=24.8 size=N/A time=00:00:20.07 bitrate=N/A    frame= 1209 fps= 12 q=24.8 size=N/A time=00:00:20.17 bitrate=N/A    frame= 1215 fps= 12 q=24.8 size=N/A time=00:00:20.27 bitrate=N/A    frame= 1221 fps= 12 q=24.8 size=N/A time=00:00:20.37 bitrate=N/A    frame= 1227 fps= 12 q=24.8 size=N/A time=00:00:20.47 bitrate=N/A    frame= 1233 fps= 12 q=24.8 size=N/A time=00:00:20.57 bitrate=N/A    frame= 1239 fps= 12 q=24.8 size=N/A time=00:00:20.67 bitrate=N/A    frame= 1245 fps= 12 q=24.8 size=N/A time=00:00:20.77 bitrate=N/A    frame= 1251 fps= 12 q=24.8 size=N/A time=00:00:20.87 bitrate=N/A    frame= 1257 fps= 12 q=24.8 size=N/A time=00:00:20.97 bitrate=N/A    frame= 1263 fps= 12 q=24.8 size=N/A time=00:00:21.07 bitrate=N/A    frame= 1269 fps= 12 q=24.8 size=N/A time=00:00:21.17 bitrate=N/A    frame= 1275 fps= 12 q=24.8 size=N/A time=00:00:21.27 bitrate=N/A    frame= 1281 fps= 12 q=24.8 size=N/A time=00:00:21.37 bitrate=N/A    frame= 1287 fps= 12 q=24.8 size=N/A time=00:00:21.47 bitrate=N/A    frame= 1293 fps= 12 q=24.8 size=N/A time=00:00:21.57 bitrate=N/A    frame= 1299 fps= 12 q=24.8 size=N/A time=00:00:21.67 bitrate=N/A    frame= 1305 fps= 12 q=24.8 size=N/A time=00:00:21.77 bitrate=N/A    frame= 1311 fps= 12 q=24.8 size=N/A time=00:00:21.87 bitrate=N/A    frame= 1317 fps= 12 q=24.8 size=N/A time=00:00:21.97 bitrate=N/A    frame= 1323 fps= 12 q=24.8 size=N/A time=00:00:22.07 bitrate=N/A    frame= 1329 fps= 12 q=24.8 size=N/A time=00:00:22.17 bitrate=N/A    frame= 1335 fps= 12 q=24.8 size=N/A time=00:00:22.27 bitrate=N/A    frame= 1341 fps= 12 q=24.8 size=N/A time=00:00:22.37 bitrate=N/A    frame= 1347 fps= 12 q=24.8 size=N/A time=00:00:22.47 bitrate=N/A    frame= 1353 fps= 12 q=24.8 size=N/A time=00:00:22.57 bitrate=N/A    frame= 1359 fps= 12 q=24.8 size=N/A time=00:00:22.67 bitrate=N/A    frame= 1365 fps= 12 q=24.8 size=N/A time=00:00:22.77 bitrate=N/A    frame= 1371 fps= 12 q=24.8 size=N/A time=00:00:22.87 bitrate=N/A    frame= 1377 fps= 12 q=24.8 size=N/A time=00:00:22.97 bitrate=N/A    frame= 1383 fps= 12 q=24.8 size=N/A time=00:00:23.07 bitrate=N/A    frame= 1389 fps= 12 q=24.8 size=N/A time=00:00:23.17 bitrate=N/A    frame= 1395 fps= 12 q=24.8 size=N/A time=00:00:23.27 bitrate=N/A    frame= 1401 fps= 12 q=24.8 size=N/A time=00:00:23.37 bitrate=N/A    frame= 1407 fps= 12 q=24.8 size=N/A time=00:00:23.47 bitrate=N/A    frame= 1413 fps= 12 q=24.8 size=N/A time=00:00:23.57 bitrate=N/A    frame= 1419 fps= 12 q=24.8 size=N/A time=00:00:23.67 bitrate=N/A    frame= 1425 fps= 12 q=24.8 size=N/A time=00:00:23.77 bitrate=N/A    frame= 1431 fps= 12 q=24.8 size=N/A time=00:00:23.87 bitrate=N/A    frame= 1437 fps= 12 q=24.8 size=N/A time=00:00:23.97 bitrate=N/A    frame= 1443 fps= 12 q=24.8 size=N/A time=00:00:24.07 bitrate=N/A    frame= 1449 fps= 12 q=24.8 size=N/A time=00:00:24.17 bitrate=N/A    frame= 1455 fps= 12 q=24.8 size=N/A time=00:00:24.27 bitrate=N/A    frame= 1461 fps= 12 q=24.8 size=N/A time=00:00:24.37 bitrate=N/A    frame= 1467 fps= 12 q=24.8 size=N/A time=00:00:24.47 bitrate=N/A    frame= 1473 fps= 12 q=24.8 size=N/A time=00:00:24.57 bitrate=N/A    frame= 1479 fps= 12 q=24.8 size=N/A time=00:00:24.67 bitrate=N/A    frame= 1485 fps= 12 q=24.8 size=N/A time=00:00:24.77 bitrate=N/A    frame= 1491 fps= 12 q=24.8 size=N/A time=00:00:24.87 bitrate=N/A    frame= 1497 fps= 12 q=24.8 size=N/A time=00:00:24.97 bitrate=N/A    frame= 1503 fps= 12 q=24.8 size=N/A time=00:00:25.07 bitrate=N/A    frame= 1509 fps= 12 q=24.8 size=N/A time=00:00:25.17 bitrate=N/A    frame= 1515 fps= 12 q=24.8 size=N/A time=00:00:25.27 bitrate=N/A    frame= 1521 fps= 12 q=24.8 size=N/A time=00:00:25.37 bitrate=N/A    frame= 1527 fps= 12 q=24.8 size=N/A time=00:00:25.47 bitrate=N/A    frame= 1533 fps= 12 q=24.8 size=N/A time=00:00:25.57 bitrate=N/A    frame= 1539 fps= 12 q=24.8 size=N/A time=00:00:25.67 bitrate=N/A    frame= 1545 fps= 12 q=24.8 size=N/A time=00:00:25.77 bitrate=N/A    frame= 1551 fps= 12 q=24.8 size=N/A time=00:00:25.87 bitrate=N/A    frame= 1557 fps= 12 q=24.8 size=N/A time=00:00:25.97 bitrate=N/A    frame= 1563 fps= 12 q=24.8 size=N/A time=00:00:26.07 bitrate=N/A    frame= 1569 fps= 12 q=24.8 size=N/A time=00:00:26.17 bitrate=N/A    frame= 1575 fps= 12 q=24.8 size=N/A time=00:00:26.27 bitrate=N/A    frame= 1581 fps= 12 q=24.8 size=N/A time=00:00:26.37 bitrate=N/A    frame= 1587 fps= 12 q=24.8 size=N/A time=00:00:26.47 bitrate=N/A    frame= 1590 fps= 12 q=24.8 Lsize=N/A time=00:00:26.52 bitrate=N/A    
video:497151kB audio:0kB subtitle:0kB other streams:0kB global headers:0kB muxing overhead: unknown
+ turkic load DJI_0350_30m_nyulragas_jelolve_Vaskut_20180512_napos_kalaszos_T2 /home/horvathandras/vatic/vatic/videos/DJI_0350_30m_nyulragas_jelolve_Vaskut_20180512_napos_kalaszos_T2 $'Pozit\303\255vROI' $'Negat\303\255vROI' $'T\303\272r\303\241s' '~Friss' '~Régebbi' $'R\303\241g\303\241s' '~Friss' '~Régebbi' $'T\303\266r\303\251s' '~Friss' '~Régebbi' $'Tapos\303\241s' '~Friss' '~Régebbi' $'Eg\303\251szs\303\251gesN\303\266v\303\251ny' $'Egy\303\251b1' $'Egy\303\251b2' $'Egy\303\251b3' $'Egy\303\251b4' $'Egy\303\251b5' --offline --title '$filenameNoDot Video' --length 1000 --description 'vatic annotation'
+ turkic publish --offline
+ mkdir /home/horvathandras/vatic/vatic/public/videothumbnails/DJI_0350_30m_nyulragas_jelolve_Vaskut_20180512_napos_kalaszos_T2
+ cp /home/horvathandras/vatic/vatic/videos/DJI_0350_30m_nyulragas_jelolve_Vaskut_20180512_napos_kalaszos_T2/0/0/31.jpg /home/horvathandras/vatic/vatic/public/videothumbnails/DJI_0350_30m_nyulragas_jelolve_Vaskut_20180512_napos_kalaszos_T2/thumb.jpg
